<?xml version="1.0" encoding="utf-8"?>
<!-- Generator: Adobe Illustrator 16.0.4, SVG Export Plug-In . SVG Version: 6.00 Build 0)  -->
<!DOCTYPE svg PUBLIC "-//W3C//DTD SVG 1.1//EN" "http://www.w3.org/Graphics/SVG/1.1/DTD/svg11.dtd">
<svg version="1.1" id="Layer_1" xmlns="http://www.w3.org/2000/svg" xmlns:xlink="http://www.w3.org/1999/xlink" x="0px" y="0px"
	 width="531px" height="181px" viewBox="0 0 531 181" enable-background="new 0 0 531 181" xml:space="preserve">
<rect x="-50" y="-275" display="none" fill="#54BF9F" width="612" height="792"/>
<g display="none">
	<defs>
		<rect id="SVGID_1_" x="-50" y="-275" width="612" height="792"/>
	</defs>
	<clipPath id="SVGID_2_" display="inline">
		<use xlink:href="#SVGID_1_"  overflow="visible"/>
	</clipPath>
	
		<rect x="-50" y="-282" display="inline" clip-path="url(#SVGID_2_)" fill="none" stroke="#000000" stroke-miterlimit="10" width="612" height="799"/>
</g>
<g>
	<defs>
		<rect id="SVGID_3_" x="-50" y="-275" width="612" height="792"/>
	</defs>
	<clipPath id="SVGID_4_">
		<use xlink:href="#SVGID_3_"  overflow="visible"/>
	</clipPath>
	<path clip-path="url(#SVGID_4_)" fill="#FFFFFF" d="M341.905,56.104c0,0,82.319,0.551,123.341-37.167
		c0,0-12.665,33.037-109.851,45.977l-0.049,1.38l7.208,0.272c0,0-7.899,17.964-26.947,36.703c-2.961,2.912,0.287-5.478-1.107-7.999
		c-1.596-2.886-4.35-6.18-3.444-8.35C334.416,78.864,339.021,68.985,341.905,56.104"/>
	<path clip-path="url(#SVGID_4_)" fill="#FFFFFF" d="M401.089,61.376c0,0,89.849-28.078,126.911-55.482
		C528,5.894,514.972,52.616,401.089,61.376"/>
	<path clip-path="url(#SVGID_4_)" fill="#FFFFFF" d="M405.356,77.549c0,0,7.637-5.391,10.107-11.68c0,0,53.012-4.044,68.285-13.028
		C483.749,52.841,464.656,73.73,405.356,77.549"/>
	<path clip-path="url(#SVGID_4_)" fill="#FFFFFF" d="M362.453,79.571l6.289-11.231l39.534-1.797
		C408.276,66.542,406.704,81.593,362.453,79.571"/>
	<path clip-path="url(#SVGID_4_)" fill="#FFFFFF" d="M386.264,95.743c0,0,10.557-3.819,15.05-12.354c0,0,51.214-1.797,59.974-5.84
		C461.287,77.549,444.44,96.192,386.264,95.743"/>
	<path clip-path="url(#SVGID_4_)" fill="#FFFFFF" d="M364.025,112.365c0,0,12.354-4.942,15.948-10.333
		c0,0,43.128-2.246,51.663-3.369C431.637,98.664,411.871,111.917,364.025,112.365"/>
	<path clip-path="url(#SVGID_4_)" fill="#FFFFFF" d="M337.521,128.763c0,0,13.927-5.166,17.296-10.557
		c0,0,25.158-0.449,31.447-0.899C386.264,117.307,377.952,125.618,337.521,128.763"/>
	<path clip-path="url(#SVGID_4_)" fill="#FFFFFF" d="M332.649,126.076l-0.25-3.249c0,0,0.652-0.431,1.999-4.248l13.679-0.149
		C348.077,118.43,339.396,125.326,332.649,126.076"/>
	<path clip-path="url(#SVGID_4_)" fill="#FFFFFF" d="M333.028,113.713l11.68-11.231l27.629-0.449
		C372.337,102.033,362.004,114.387,333.028,113.713"/>
	<path clip-path="url(#SVGID_4_)" fill="#FFFFFF" d="M349.8,96.861L358.549,86l35.6-1.508
		C394.148,84.492,387.812,98.671,349.8,96.861"/>
</g>
<g>
	<defs>
		<rect id="SVGID_5_" x="193.949" y="36.571" width="146.605" height="94.069"/>
	</defs>
	<clipPath id="SVGID_6_">
		<use xlink:href="#SVGID_5_"  overflow="visible"/>
	</clipPath>
	
		<circle clip-path="url(#SVGID_6_)" fill="none" stroke="#FFFFFF" stroke-width="6" stroke-miterlimit="10" cx="266.673" cy="112.38" r="69.216"/>
</g>
<text transform="matrix(1 0 0 1 154.25 169.9463)"><tspan x="0" y="0" fill="#FFFFFF" font-family="'Bebas'" font-size="38.9427" letter-spacing="7">M</tspan><tspan x="35.64" y="0" fill="#FFFFFF" font-family="'Bebas'" font-size="38.9427" letter-spacing="7">C</tspan><tspan x="63.202" y="0" fill="#FFFFFF" font-family="'Bebas'" font-size="38.9427" letter-spacing="6">G</tspan><tspan x="90.179" y="0" fill="#FFFFFF" font-family="'Bebas'" font-size="38.9427" letter-spacing="6">A</tspan><tspan x="119.44" y="0" fill="#FFFFFF" font-family="'Bebas'" font-size="38.9427" letter-spacing="7">G</tspan><tspan x="147.353" y="0" fill="#FFFFFF" font-family="'Bebas'" font-size="38.9427" letter-spacing="7">H</tspan><tspan x="175.575" y="0" fill="#FFFFFF" font-family="'Bebas'" font-size="38.9427" letter-spacing="6">E</tspan><tspan x="200.827" y="0" fill="#FFFFFF" font-family="'Bebas'" font-size="38.9427">Y</tspan></text>
<g>
	<defs>
		<rect id="SVGID_7_" x="-50" y="-275" width="612" height="792"/>
	</defs>
	<clipPath id="SVGID_8_">
		<use xlink:href="#SVGID_7_"  overflow="visible"/>
	</clipPath>
	
		<line clip-path="url(#SVGID_8_)" fill="none" stroke="#FFFFFF" stroke-width="6" stroke-miterlimit="10" x1="156" y1="132.27" x2="376.333" y2="132.27"/>
	
		<line clip-path="url(#SVGID_8_)" fill="none" stroke="#FFFFFF" stroke-width="6" stroke-miterlimit="10" x1="156.045" y1="172.27" x2="376.333" y2="172.27"/>
	
		<line clip-path="url(#SVGID_8_)" fill="none" stroke="#FFFFFF" stroke-width="6" stroke-miterlimit="10" x1="266.673" y1="41.14" x2="266.673" y2="130.603"/>
	
		<line clip-path="url(#SVGID_8_)" fill="none" stroke="#FFFFFF" stroke-width="6" stroke-miterlimit="10" x1="199.063" y1="114.713" x2="334.5" y2="114.713"/>
	
		<line clip-path="url(#SVGID_8_)" fill="none" stroke="#FFFFFF" stroke-width="6" stroke-miterlimit="10" x1="199.5" y1="95.27" x2="334.5" y2="95.27"/>
	
		<line clip-path="url(#SVGID_8_)" fill="none" stroke="#FFFFFF" stroke-width="6" stroke-miterlimit="10" x1="207" y1="75.77" x2="326.333" y2="75.77"/>
	<path clip-path="url(#SVGID_8_)" fill="none" stroke="#FFFFFF" stroke-width="6" stroke-miterlimit="10" d="M221.975,131.683
		c0,0-4.295-88.518,43.699-88.518"/>
	<path clip-path="url(#SVGID_8_)" fill="none" stroke="#FFFFFF" stroke-width="6" stroke-miterlimit="10" d="M311.574,131.683
		c0,0,4.295-88.518-43.699-88.518"/>
	<path clip-path="url(#SVGID_8_)" fill="#FFFFFF" d="M189.836,56c0,0-82.319,0.551-123.34-37.167c0,0,12.664,33.037,109.85,45.977
		l0.049,1.38l-7.208,0.272c0,0,7.899,17.964,26.947,36.703c2.961,2.912-0.287-5.478,1.107-7.999c1.596-2.886,4.35-6.18,3.445-8.35
		C197.325,78.76,192.72,68.881,189.836,56"/>
	<path clip-path="url(#SVGID_8_)" fill="#FFFFFF" d="M130.653,61.272c0,0-89.849-28.078-126.912-55.482
		C3.741,5.79,16.77,52.512,130.653,61.272"/>
	<path clip-path="url(#SVGID_8_)" fill="#FFFFFF" d="M126.385,77.445c0,0-7.637-5.391-10.108-11.68c0,0-53.011-4.044-68.285-13.028
		C47.992,52.737,67.085,73.626,126.385,77.445"/>
	<path clip-path="url(#SVGID_8_)" fill="#FFFFFF" d="M169.288,79.467L163,68.236l-39.534-1.797
		C123.465,66.438,125.037,81.489,169.288,79.467"/>
	<path clip-path="url(#SVGID_8_)" fill="#FFFFFF" d="M145.479,95.64c0,0-10.557-3.819-15.05-12.354c0,0-51.214-1.797-59.974-5.84
		C70.454,77.445,87.301,96.088,145.479,95.64"/>
	<path clip-path="url(#SVGID_8_)" fill="#FFFFFF" d="M167.716,112.261c0,0-12.354-4.942-15.948-10.333
		c0,0-43.128-2.246-51.663-3.369C100.105,98.56,119.871,111.812,167.716,112.261"/>
	<path clip-path="url(#SVGID_8_)" fill="#FFFFFF" d="M194.221,128.659c0,0-13.927-5.166-17.296-10.557
		c0,0-25.158-0.449-31.447-0.899C145.479,117.203,153.789,125.514,194.221,128.659"/>
	<path clip-path="url(#SVGID_8_)" fill="#FFFFFF" d="M199.092,125.972l0.25-3.249c0,0-0.652-0.43-1.999-4.248l-13.679-0.149
		C183.664,118.326,192.345,125.222,199.092,125.972"/>
	<path clip-path="url(#SVGID_8_)" fill="#FFFFFF" d="M198.714,113.609l-11.68-11.231l-27.629-0.449
		C159.405,101.929,169.738,114.283,198.714,113.609"/>
	<path clip-path="url(#SVGID_8_)" fill="#FFFFFF" d="M181.942,96.757l-8.749-10.861l-35.6-1.508
		C137.593,84.388,143.929,98.567,181.942,96.757"/>
</g>
</svg>
